PathFileType	4	(X/Y/Z)	Patient4_TMGait_0pt7_01_left_38.trc.trc
DataRate	CameraRate	NumFrames	NumMarkers	Units	OrigDataRate	OrigDataStartFrame	OrigNumFrames
85.889570552147	85.889570552147	4	33	mm	85.889570552147	71	       141
Frame#	Time	Sacral			L.Shoulder			Chest			R.Shoulder			Neck			R.ASIS			L.ASIS			R.Thigh.Superior			R.Thigh.Lateral			R.Thigh.Inferior			R.Patella			L.Thigh.Superior			L.Thigh.Lateral			L.Thigh.Inferior			L.Patella			L.Shank.Superior			L.Shank.Lateral			L.Shank.Inferior			R.Shank.Superior			R.Shank.Lateral			R.Shank.Inferior			R.Heel			R.Midfoot.Superior			R.Midfoot.Lateral			R.Toe			L.Heel			L.Midfoot.Lateral			L.Midfoot.Superior			L.Toe			L.Elbow			L.Wrist			R.Elbow			R.Wrist			
		X1	Y1	Z1	X2	Y2	Z2	X3	Y3	Z3	X4	Y4	Z4	X5	Y5	Z5	X6	Y6	Z6	X7	Y7	Z7	X8	Y8	Z8	X9	Y9	Z9	X10	Y10	Z10	X11	Y11	Z11	X12	Y12	Z12	X13	Y13	Z13	X14	Y14	Z14	X15	Y15	Z15	X16	Y16	Z16	X17	Y17	Z17	X18	Y18	Z18	X19	Y19	Z19	X20	Y20	Z20	X21	Y21	Z21	X22	Y22	Z22	X23	Y23	Z23	X24	Y24	Z24	X25	Y25	Z25	X26	Y26	Z26	X27	Y27	Z27	X28	Y28	Z28	X29	Y29	Z29	X30	Y30	Z30	X31	Y31	Z31	X32	Y32	Z32	X33	Y33	Z33	

71	44.775000000000	848.424274912998	1008.203184558371	447.872748902980	1059.411074513178	1430.089348922302	274.952218367167	1147.776040752398	1352.747873549938	441.478902794884	1058.190123128499	1432.486306631895	609.866492201725	1052.465738435625	1489.556927546950	429.928975700099	1069.025299276956	943.071089884395	577.407315077040	1065.981676592639	954.020472275523	302.149282834893	1141.514530166993	772.821156702412	551.610262615289	1100.091565457057	651.571235960752	628.602950627942	1186.952956069663	612.912403200441	547.594135623060	1221.631959887200	534.738159777801	564.984439386361	1066.432836564748	728.252271043915	334.465840263946	950.364102785671	634.959562741984	268.914965573797	1007.223932427285	541.305135052993	335.535312216017	991.002615860052	476.062152179856	345.511804894469	959.312845462504	409.642256591810	336.793584121532	858.310256507675	304.718145336397	288.036463100498	896.287433006786	189.733604330020	360.537423382580	1212.869370625341	447.463053893793	577.091032292883	1171.164725606009	330.517812225673	643.554182948380	1247.030770652176	249.980797256068	590.824071534256	1170.315787315880	55.057720914882	565.003029706588	1328.312287974165	141.603346795874	605.054727711099	1256.163944505558	57.636880093754	635.513116744363	1455.464180042244	112.619686429659	625.717879932876	757.510840209099	39.569413385352	405.717901870365	828.630255280851	36.169849515762	322.996514243864	913.377305029769	96.041951324619	347.541453639524	1040.508067952060	40.483797997905	314.048061357394	1151.092353865523	1127.290849641778	109.035273234806	1394.653994666051	1133.875496457819	182.436803720411	891.483038940664	1131.702107535181	718.172189327811	849.502875382375	873.313803903526	732.171719454991	
72	44.786642857143	850.395711151785	1005.760040707715	450.154550840247	1059.003339038214	1428.337857013889	276.467246311904	1148.121064446962	1351.543054894589	442.800359931630	1058.572478265690	1431.022478568180	611.240080464856	1052.289627161568	1487.805876188422	431.434519845454	1071.359636634161	940.978123441563	578.649872500332	1067.648875095815	952.335635593799	303.334751675927	1141.975047526650	768.566238043439	553.048451965295	1098.470507444453	647.621242525334	629.605895575058	1184.720491227899	608.352787040861	548.386980839639	1218.046019625519	530.938952161798	565.153250396060	1065.872660468521	726.018386548783	335.040229269596	948.380791380762	633.957359244844	269.960542949400	1004.404958403347	539.612414421004	336.150733000985	987.448644003044	474.333270428037	346.128711535334	954.944388252613	408.338310579834	337.360295572694	852.541883979881	304.719918698877	288.522080632428	889.255640680052	189.153958422905	360.703118830807	1210.561420787120	443.638771603235	577.283178628500	1169.598476478204	325.962391943335	642.627893828474	1246.793068359967	246.578572084166	589.974084810526	1172.380774441223	51.448189086639	562.614004874916	1329.353055232632	138.680285336460	603.818416434166	1257.592264677027	54.678382110766	633.732622858606	1456.500714831009	110.659457100395	625.502359628792	749.299135960835	39.593402801873	405.663840203815	820.447760186065	36.130314948519	323.002679002881	905.236729128424	95.986948708251	347.540110921482	1032.317325712241	40.376424131873	314.016925733840	1151.742641388496	1126.268284328709	110.135164033394	1394.051413912089	1137.802362277073	185.951530298870	889.646659687781	1132.125711868786	719.553245411847	845.734266303156	873.989429027370	733.587337774874	
73	44.798285714286	852.490525269104	1003.215704637392	452.606005447671	1058.500582414362	1426.486964137611	278.080615330370	1148.472520206197	1350.329796868184	444.224044654646	1058.928567158826	1429.482033568694	612.752406943638	1052.043120786785	1485.997686588149	433.070763275938	1073.839224781802	938.811907676293	580.050284377543	1069.467055960944	950.565068630854	304.679448041177	1143.041043576063	764.598203490343	554.606853304381	1097.321747715699	643.738246791376	630.247584373786	1183.283720884730	604.192806512143	549.125865520545	1215.047786828696	526.981032774161	565.173126189184	1065.712528829563	723.784216130215	335.762992060663	946.868409921991	632.905899172680	271.181345112026	1002.159270083793	537.869759440106	336.885371174541	984.503210584871	472.446619036517	346.874378140926	951.068212469281	406.910280529727	338.036653970247	847.122588636235	304.777016228288	289.090751322443	882.386445699992	188.568701958769	360.875936535587	1208.158541551379	439.418260204494	577.143443367553	1166.800636939495	321.408386657007	641.198791021920	1244.502023537435	242.547857711454	588.680426731603	1170.416324289352	48.424828711810	559.819889821337	1327.163160466780	134.531592375052	602.026277526488	1254.950408656436	51.531979658257	631.605314002102	1453.972152821728	106.085392844877	624.807420099932	741.077125272131	39.706600932889	405.555485934179	812.287175528301	36.102299908978	322.983905067728	897.154253835731	95.945931075456	347.494707282591	1024.165920837107	40.255484634863	313.965793529619	1151.782175601170	1124.809023905335	111.373119772185	1392.900194047629	1140.497242265872	189.344698484841	888.920441174818	1131.739498838134	721.171028454045	843.619697195125	873.769512432764	735.069088166264	
74	44.809928571429	854.666387124897	1000.671271422680	455.185644419957	1057.959074715544	1424.580013186602	279.787519033928	1148.854432361662	1349.144677267341	445.761390435620	1059.274155061128	1427.919908614778	614.408948426119	1051.778608153911	1484.194022781760	434.829891922133	1076.427422624777	936.643981691464	581.624229204619	1071.398727833941	948.774867442445	306.203490499259	1144.677049513305	760.970080520608	556.300126666569	1096.602993635197	640.010604260950	630.566062966899	1182.608371603905	600.496223635941	549.829032248557	1212.655713601503	522.975656294511	565.019462402038	1065.947425241559	721.616708191926	336.632978993634	945.829074292263	631.844144617075	272.573022002295	1000.516462756485	536.111494172514	337.720744047253	982.218275949648	470.421161327528	347.708896060905	947.706038476317	405.389846868776	338.800542672122	842.067276426513	304.937482797893	289.734643878438	875.697869838867	188.020399547897	361.038385514830	1205.788028840304	434.963478082606	576.692695596459	1163.145329230199	316.950528800347	639.435420191108	1240.594683194222	238.040745038601	587.032609721962	1165.056418606622	45.946279624775	556.901276836518	1322.355102976037	129.406954999634	599.745614805916	1248.974971711287	48.317229097304	629.332744041763	1448.591718863497	99.306560823785	623.573220322396	732.847239145672	39.987301309926	405.383183456016	804.149773719307	36.114134970502	322.932449107887	889.154464797958	95.926140799218	347.384682044213	1016.058321737716	40.123612762490	313.890604246722	1151.199889994153	1122.909450685209	112.762067566228	1391.256602404746	1141.934170245811	192.599944067664	889.318898767656	1130.551894866098	723.030955228788	843.226344672316	872.645596981751	736.588095869035	
